# xmcd
#
# Track frame offsets:
#	150
#	15527
#	31650
#	51442
#	65727
#	77337
#	90012
#	106270
#	121762
#	141040
#	155447
#	172230
#	188955
#	204532
#	217197
#	237010
#
# Disc length: 3404 seconds
#
# Revision: 0
# Processed by: cddbd v1.5.1PL0 Copyright (c) Steve Scherf et al.
# Submitted via: dBpowerAMP V4.0
#
DISCID=cf0d4a10
DTITLE=Brian Fraser - Sitting On The Corner
DYEAR=2000
DGENRE=Blues
TTITLE0=Sitting On The Corner
TTITLE1=The Old Port Road
TTITLE2=It'll Be Alright
TTITLE3=Home Away From Home
TTITLE4=Different Moments
TTITLE5=Tell Me Momma
TTITLE6=Milwaukee Blues
TTITLE7=Running Against The Wind
TTITLE8=Into MY Arms
TTITLE9=waltzing Matilda
TTITLE10=Cards On The Table
TTITLE11=Late Again
TTITLE12=Missing You
TTITLE13=The Way That It Is
TTITLE14=Time To Go Home
TTITLE15=Gospel In The Park
EXTD=Brian Fraser Australian Blues One Man Band From South Australia\n
EXTT0=
EXTT1=
EXTT2=
EXTT3=
EXTT4=
EXTT5=
EXTT6=
EXTT7=
EXTT8=
EXTT9=
EXTT10=
EXTT11=
EXTT12=
EXTT13=
EXTT14=
EXTT15=
PLAYORDER=
